<svg width="100" height="32" viewBox="0 0 100 32" fill="none" xmlns="http://www.w3.org/2000/svg">
<g clip-path="url(#clip0_5_7)">
<path d="M4.71191 0.348328H9.23381V2.10512H7.73256V27.0032H6.386V2.10512H4.71191V0.348328Z" fill="white"/>
<path d="M15.6791 4.01337C15.7034 4.01337 15.7155 4.17491 15.7155 4.498C15.7155 4.82109 15.7125 5.14418 15.7064 5.46727V5.93676C15.2272 5.93676 14.8026 6.0983 14.4326 6.42139C14.0687 6.73438 13.7109 7.30484 13.3591 8.13275V27.0032H12.0034V4.28598H13.3591V6.81516C13.5167 5.92666 13.7927 5.24009 14.187 4.75547C14.5873 4.26074 15.0847 4.01337 15.6791 4.01337Z" fill="white"/>
<path d="M18.567 4.28598H19.9318V27.0032H18.567V4.28598ZM18.567 0.015152H19.9226V2.196H18.567V0.015152Z" fill="white"/>
<path d="M27.76 10.9345C27.76 9.15755 27.7145 8.05198 27.6235 7.61783C27.5386 7.17359 27.4355 6.79496 27.3142 6.48197C27.1929 6.16898 26.9927 6.01248 26.7137 6.01248C26.4347 6.01248 26.2284 6.04277 26.095 6.10335C25.7674 6.25479 25.5279 6.69399 25.3762 7.42095C25.2246 8.1378 25.1487 9.31909 25.1487 10.9648V19.9911C25.1487 21.9195 25.2397 23.2825 25.4217 24.0802C25.6097 24.8677 25.9616 25.2615 26.4771 25.2615C26.9927 25.2615 27.3354 24.8677 27.5052 24.0802C27.6751 23.2926 27.76 21.9044 27.76 19.9154V10.9345ZM25.1487 6.02763C25.4702 4.75547 26.0737 4.11938 26.9593 4.11938C27.5781 4.11938 28.0421 4.46267 28.3514 5.14923C28.6668 5.82569 28.8731 6.70409 28.9701 7.78442C29.0671 8.85465 29.1157 10.147 29.1157 11.6615V19.8094C29.1157 19.8396 29.1157 19.875 29.1157 19.9154C29.1157 22.7727 28.8912 24.7163 28.4424 25.7461C27.9935 26.7659 27.3809 27.2757 26.6045 27.2757C26.2952 27.2757 26.004 27.094 25.7311 26.7306C25.4642 26.357 25.2701 25.9026 25.1487 25.3676V31.0165H23.7931V4.28598H25.1487V6.02763Z" fill="white"/>
<path d="M38.1486 4.55859L38.1577 5.17953C38.1577 6.26994 38.4973 8.20848 39.1767 10.9951C39.6438 10.0258 40.0016 9.07678 40.2503 8.1479C40.5051 7.20893 40.6324 6.16393 40.6324 5.01293C40.6324 3.86193 40.5566 3.04411 40.4049 2.55947C40.2533 2.06474 39.8954 1.81738 39.3314 1.81738C38.5974 1.81738 38.2093 2.51909 38.1668 3.92251C38.1607 4.14463 38.1546 4.29103 38.1486 4.36171C38.1486 4.42228 38.1486 4.48791 38.1486 4.55859ZM42.0609 21.4753C42.9222 24.4841 43.4438 26.3266 43.6258 27.0032H42.4976C42.3399 26.3772 42.0184 25.2363 41.5332 23.5805C41.2299 24.7214 40.9175 25.5392 40.5961 26.0339C40.2746 26.5286 39.9531 26.8618 39.6316 27.0335C39.3162 27.2152 38.9523 27.306 38.5398 27.306C37.7149 27.306 37.0476 26.8316 36.5381 25.8825C36.0286 24.9334 35.7739 23.6309 35.7739 21.9751C35.7739 20.3193 35.8739 19.0926 36.0741 18.2949C36.2804 17.4973 36.4744 16.7956 36.6564 16.1897C36.8384 15.584 37.4025 14.3926 38.3488 12.6156C37.3358 8.83951 36.8293 6.35072 36.8293 5.14923C36.8293 1.72652 37.6967 0.015152 39.4314 0.015152C40.4444 0.015152 41.1086 0.459398 41.424 1.34789C41.7454 2.23639 41.9062 3.47826 41.9062 5.07351C41.9062 6.66876 41.6939 8.06208 41.2693 9.25346C40.8508 10.4347 40.3231 11.6816 39.6862 12.9942C40.1169 14.6501 40.6961 16.7299 41.424 19.2339C41.9153 17.5175 42.4551 16.0837 43.0435 14.9327L43.6713 16.5533C43.1254 17.6841 42.5886 19.3247 42.0609 21.4753ZM40.8599 21.3087C39.9743 18.3404 39.3223 16.1141 38.9038 14.6298C38.3943 15.7606 37.9757 16.9066 37.6481 18.0677C37.3206 19.2288 37.1538 20.5566 37.1478 22.0508C37.1478 24.2923 37.6664 25.4129 38.7036 25.4129C39.2738 25.4129 39.7529 24.8576 40.1411 23.747C40.3352 23.1716 40.5748 22.3587 40.8599 21.3087Z" fill="white"/>
<path d="M56.4254 0.348328H57.9449V27.0032H56.7166V15.584L56.9259 4.84632L54.6422 26.4276H53.3502L50.9846 4.84632L51.1939 15.584V27.0032H49.9565V0.348328H51.4759L53.9962 22.7323L56.4254 0.348328Z" fill="white"/>
<path d="M61.8063 4.28598H63.1712V27.0032H61.8063V4.28598ZM61.8063 0.015152H63.1619V2.196H61.8063V0.015152Z" fill="white"/>
<path d="M68.3881 6.51225C68.5094 5.83579 68.7763 5.25019 69.1888 4.75546C69.6075 4.25063 70.0987 3.99821 70.6625 3.99821C71.2269 3.99821 71.6906 4.38693 72.055 5.16437C72.4187 5.9418 72.6006 7.10795 72.6006 8.66281V27.0032H71.245V8.48108C71.245 7.60268 71.1238 6.97164 70.8813 6.58798C70.6444 6.19421 70.3262 5.99733 69.9256 5.99733C68.9006 5.99733 68.3881 6.84039 68.3881 8.52651V27.0032H67.0325V4.28597H68.3881V6.51225Z" fill="white"/>
<path d="M80.0556 11.298C80.0556 9.34936 79.965 7.98635 79.7831 7.20892C79.6069 6.42139 79.2612 6.02763 78.7456 6.02763C78.23 6.02763 77.8844 6.43148 77.7088 7.23921C77.5325 8.03683 77.4444 9.42509 77.4444 11.404V20.4C77.4444 22.4799 77.5419 23.8126 77.7356 24.3983C77.9356 24.9838 78.23 25.2766 78.6181 25.2766C79.0063 25.2766 79.2825 25.1605 79.4463 24.9283C79.6163 24.686 79.7587 24.2872 79.8737 23.7319C79.995 23.1665 80.0556 22.0659 80.0556 20.4303V11.298ZM80.0469 0H81.4112V27.0032H80.0469V25.2766C79.7312 26.5387 79.1275 27.1697 78.2363 27.1697C77.2231 27.1596 76.58 26.155 76.3075 24.1559C76.1556 23.0554 76.08 21.5763 76.08 19.7185V11.7372C76.08 8.68805 76.2981 6.63846 76.735 5.58843C77.1775 4.53838 77.7994 4.01336 78.6 4.01336C78.9094 4.01336 79.1944 4.20015 79.4556 4.57373C79.7225 4.9372 79.9194 5.38145 80.0469 5.90646V0Z" fill="white"/>
<path fill-rule="evenodd" clip-rule="evenodd" d="M95.865 7.28588L99.8181 13.8655C100.061 14.2693 100.061 14.9238 99.8181 15.3276L95.865 21.9072C95.6225 22.311 95.2294 22.311 94.9869 21.9072C94.7444 21.5035 94.7444 20.8488 94.9869 20.4451L97.8794 15.6305H86.9563V13.5626H97.8794L94.9869 8.74802C94.7444 8.34426 94.7444 7.68964 94.9869 7.28588C95.2294 6.88212 95.6225 6.88212 95.865 7.28588Z" fill="#EFC224"/>
<path d="M2.48447 13.5626H0V15.6304H2.48447V13.5626Z" fill="#EFC224"/>
</g>
<defs>
<clipPath id="clip0_5_7">
<rect width="100" height="31.8182" fill="white"/>
</clipPath>
</defs>
</svg>
